<?xml version="1.0" encoding="utf-8"?>
<!-- Generator: Adobe Illustrator 27.2.0, SVG Export Plug-In . SVG Version: 6.00 Build 0)  -->
<svg version="1.1" id="Layer_1" xmlns="http://www.w3.org/2000/svg" xmlns:xlink="http://www.w3.org/1999/xlink" x="0px" y="0px"
	 viewBox="0 0 180 50" style="enable-background:new 0 0 180 50;" xml:space="preserve">
<style type="text/css">
	.st0{fill:#E72F2C;}
</style>
<g id="Netflix_x5F_Logo_x5F_CMYK_1_">
	<g>
		<path class="st0" d="M138.08,45.19c2.47,0.19,4.93,0.39,7.39,0.61V2.4h-7.39V45.19z M19.16,29.09L9.53,2.4H2.51v47.16
			c2.46-0.35,4.92-0.69,7.39-1.01V22.9l8.56,24.59c2.69-0.31,5.39-0.61,8.09-0.89V2.4h-7.39V29.09z M33.66,45.93
			c6.81-0.62,13.66-1.13,20.53-1.53v-7.29c-4.39,0.25-8.77,0.55-13.14,0.9V26.99c2.87-0.03,6.64-0.12,9.98-0.08v-7.28
			c-2.67-0.01-6.96,0.04-9.98,0.08V9.75H54.2V2.4H33.66V45.93z M58.94,9.75h7.74v34.06c2.46-0.09,4.92-0.17,7.39-0.23V9.75h7.74V2.4
			H58.94V9.75z M86.54,43.38l7.39,0V26.56h10.02v-7.28H93.93V9.75h13.24V2.4H86.54V43.38z M178.06,2.4h-8.12l-5.35,12.41L159.77,2.4
			h-8l8.59,22.17l-9.38,21.75c2.6,0.25,5.19,0.52,7.77,0.81l5.46-12.65l5.4,13.94c2.81,0.36,5.62,0.74,8.43,1.14l0.01,0l-9.63-24.84
			L178.06,2.4z M119.31,2.39h-7.39v41.34c6.72,0.23,13.41,0.57,20.07,1.01v-7.28c-4.21-0.28-8.44-0.52-12.68-0.72V2.39z"/>
	</g>
</g>
</svg>
